OpenSim_Sub11_CSPreOp_GRF.mot
version=1
nRows=52
nColumns=19
inDegrees=no
endheader
time	lFx	lFy	lFz	lCOPx	lCOPy	lCOPz	rFx	rFy	rFz	rCOPx	rCOPy	rCOPz	lMx	lMy	lMz	rMx	rMy	rMz
0	8.65238701	335.25326761	36.41096684	0.57309625	0	-0.64912238	-0.85985581	337.50392276	-28.01841551	0.56993973	0	-0.38861725	0	-0.45003485	0	0	1.40587846	0
0.01000000	8.89714642	335.56279826	36.51219386	0.57354527	0	-0.64937571	-0.26513880	337.45639386	-27.98132098	0.56996912	0	-0.38861559	0	-0.72059635	0	0	1.47431509	0
0.02000000	9.04775957	335.87960938	36.57529645	0.57382534	0	-0.64956783	0.04286929	337.52661117	-27.93328456	0.57007053	0	-0.38862649	0	-0.85954386	0	0	1.51223183	0.00000000
0.03000000	9.10988651	336.18211874	36.61831785	0.57389062	0	-0.64967290	0.13782778	337.60245578	-27.89399962	0.57020922	0	-0.38865143	0	-0.91377482	0	0	1.52389346	0
0.04000000	9.11837819	336.40145905	36.64783486	0.57385959	0	-0.64968660	0.15823728	337.58032408	-27.87693133	0.57039775	0	-0.38869346	0	-0.92469295	0	0	1.50953428	-0.00000000
0.05000000	9.09813730	336.47274759	36.65806182	0.57380623	0	-0.64966620	0.17521811	337.49192046	-27.88182035	0.57063988	0	-0.38872898	0	-0.91845602	0	0	1.47788786	0.00000000
0.06000000	9.05876770	336.44477977	36.65655367	0.57369252	0	-0.64963794	0.20085489	337.33957954	-27.90108655	0.57079145	0	-0.38873754	0	-0.90762010	0	0	1.45154382	0.00000000
0.07000000	9.01672910	336.39278833	36.65947243	0.57352704	0	-0.64957451	0.22199140	337.11433159	-27.92933458	0.57076376	0	-0.38871750	0	-0.89973210	0	0	1.43782861	-0.00000000
0.08000000	9.00123181	336.35684623	36.67022986	0.57341323	0	-0.64950822	0.22691386	336.82561551	-27.94198574	0.57066266	0	-0.38868847	0	-0.89323134	0	0	1.42216947	-0.00000000
0.09000000	9.01371941	336.36389261	36.66366051	0.57344859	0	-0.64952506	0.20875498	336.51551083	-27.93482403	0.57053574	0	-0.38870629	0	-0.88121584	0	0	1.41104420	0.00000000
0.10000000	9.03262466	336.46870875	36.65440682	0.57356373	0	-0.64958519	0.17843540	336.26241222	-27.92434978	0.57042721	0	-0.38876452	0	-0.87255948	0	0	1.41434311	0.00000000
0.11000000	9.03755767	336.64263429	36.65030727	0.57368465	0	-0.64961901	0.14390549	336.09816802	-27.91736186	0.57028267	0	-0.38882057	0	-0.87525268	0	0	1.44122590	-0.00000000
0.12000000	9.04131271	336.80811833	36.64072343	0.57372354	0	-0.64963506	0.09601328	335.99936373	-27.91010840	0.57010331	0	-0.38885349	0	-0.89255806	0	0	1.48013702	0
0.13000000	9.04853709	336.93293411	36.64130838	0.57364464	0	-0.64965935	0.04507657	335.93462887	-27.90221578	0.56996896	0	-0.38887793	0	-0.90968943	0	0	1.50310098	-0.00000000
0.14000000	9.06589693	337.04948315	36.66558077	0.57342469	0	-0.64965473	0.01231986	335.91737382	-27.88137069	0.56998310	0	-0.38889795	0	-0.91315027	0	0	1.49575068	0
0.15000000	9.08968522	337.19148494	36.69394356	0.57317229	0	-0.64961688	-0.00217324	335.95794792	-27.85393766	0.57009941	0	-0.38885951	0	-0.90063919	0	0	1.48033111	-0.00000000
0.16000000	9.11834854	337.31297946	36.71096276	0.57296952	0	-0.64955723	-0.01524161	335.98229000	-27.82162734	0.57016838	0	-0.38878561	0	-0.89349643	0	0	1.47647618	0
0.17000000	9.16922416	337.38209480	36.71578898	0.57284207	0	-0.64948552	-0.02942948	335.90180803	-27.79268508	0.57008684	0	-0.38873622	0	-0.89115647	0	0	1.48403531	0.00000000
0.18000000	9.23197931	337.41829092	36.71055743	0.57274216	0	-0.64943880	-0.02895231	335.78202359	-27.77214553	0.56997702	0	-0.38872725	0	-0.89548266	0	0	1.48810439	0.00000000
0.19000000	9.27081195	337.53258094	36.70983128	0.57272078	0	-0.64944283	-0.02065404	335.65193755	-27.76711949	0.56995366	0	-0.38875389	0	-0.89701075	0	0	1.48222028	-0.00000000
0.20000000	9.27015311	337.74172428	36.72999026	0.57269267	0	-0.64947023	-0.01771424	335.55035574	-27.75847714	0.57010290	0	-0.38877482	0	-0.89493468	0	0	1.45815524	0
0.21000000	9.26048139	337.99184465	36.76579012	0.57270019	0	-0.64947211	-0.02705943	335.51131334	-27.71871060	0.57035023	0	-0.38874928	0	-0.88724696	0	0	1.41929972	-0.00000000
0.22000000	9.24525610	338.26584947	36.81141603	0.57265431	0	-0.64941263	-0.04773516	335.46900083	-27.66230609	0.57046120	0	-0.38871449	0	-0.87515179	0	0	1.39905894	0
0.23000000	9.22816252	338.46234310	36.84388686	0.57255618	0	-0.64934858	-0.07069282	335.34637934	-27.61458360	0.57032619	0	-0.38872478	0	-0.87830347	0	0	1.41124244	-0.00000000
0.24000000	9.22551824	338.57087059	36.85489202	0.57255583	0	-0.64934430	-0.07473935	335.17251008	-27.58597750	0.57015188	0	-0.38877648	0	-0.89323149	0	0	1.42163771	0
0.25000000	9.21962008	338.59841814	36.84489476	0.57263213	0	-0.64938303	-0.06183507	335.05261811	-27.57708989	0.57006022	0	-0.38882488	0	-0.89491485	0	0	1.41944044	-0.00000000
0.26000000	9.21576827	338.53688507	36.79999285	0.57269685	0	-0.64944768	-0.03439747	335.01311842	-27.56264386	0.57004557	0	-0.38883556	0	-0.88524904	0	0	1.41095198	0.00000000
0.27000000	9.21403100	338.45619527	36.74569098	0.57276658	0	-0.64949780	-0.00216451	335.04608719	-27.54443846	0.57015620	0	-0.38882687	0	-0.88231169	0	0	1.41253789	0
0.28000000	9.21686853	338.42780361	36.71842740	0.57284189	0	-0.64951015	0.03467956	335.13117975	-27.51225913	0.57038828	0	-0.38882115	0	-0.88716083	0	0	1.41024388	0.00000000
0.29000000	9.22328920	338.45628231	36.71744044	0.57283040	0	-0.64950217	0.08308435	335.17651645	-27.46755957	0.57052059	0	-0.38882463	0	-0.88692758	0	0	1.39803093	-0.00000000
0.30000000	9.22705133	338.55541766	36.72685613	0.57268866	0	-0.64948847	0.13048107	335.14296889	-27.43440537	0.57053965	0	-0.38885682	0	-0.87722071	0	0	1.38571547	0
0.31000000	9.23462494	338.68354122	36.73723654	0.57248851	0	-0.64947521	0.15584123	335.06432594	-27.41338826	0.57046650	0	-0.38889843	0	-0.86164023	0	0	1.37442930	0.00000000
0.32000000	9.25187461	338.78095344	36.75111001	0.57233597	0	-0.64943287	0.15283749	334.96678243	-27.40206005	0.57028213	0	-0.38892821	0	-0.85453681	0	0	1.37573241	0
0.33000000	9.28323236	338.90810403	36.77399406	0.57229238	0	-0.64938259	0.14248598	334.88532703	-27.39467236	0.57013887	0	-0.38893822	0	-0.85924241	0	0	1.37471019	0
0.34000000	9.29961560	339.08247729	36.79059880	0.57236939	0	-0.64935316	0.13405275	334.82525179	-27.38469598	0.57008223	0	-0.38891718	0	-0.85798353	0	0	1.36604324	0
0.35000000	9.28898927	339.25352755	36.77329954	0.57251142	0	-0.64938748	0.13298116	334.69026412	-27.38706672	0.56993668	0	-0.38889047	0	-0.84968695	0	0	1.37446546	0
0.36000000	9.28435457	339.37696903	36.73524175	0.57267009	0	-0.64947575	0.13696453	334.50679521	-27.41665082	0.56972351	0	-0.38885921	0	-0.84329410	0	0	1.40005941	-0.00000000
0.37000000	9.29935517	339.37487443	36.70733652	0.57272941	0	-0.64956032	0.13036851	334.34222302	-27.45068621	0.56959757	0	-0.38882169	0	-0.83604113	0	0	1.40928944	0
0.38000000	9.31722869	339.22650101	36.69375557	0.57264581	0	-0.64959041	0.11620880	334.19700897	-27.46516349	0.56965004	0	-0.38879363	0	-0.82403253	0	0	1.39296066	0
0.39000000	9.29960716	338.99617394	36.70563768	0.57249842	0	-0.64956197	0.11528811	334.04450682	-27.46856840	0.56980312	0	-0.38878059	0	-0.83129227	0	0	1.38494749	-0.00000000
0.40000000	9.25871053	338.77790027	36.72883722	0.57245149	0	-0.64954143	0.13330383	333.87131760	-27.48026483	0.56994842	0	-0.38879481	0	-0.85395596	0	0	1.38972200	0
0.41000000	9.22347861	338.59461828	36.73063049	0.57250674	0	-0.64952735	0.15273936	333.72731923	-27.47721533	0.57002003	0	-0.38880899	0	-0.87138474	0	0	1.39011983	0.00000000
0.42000000	9.19507303	338.47520372	36.70244823	0.57255999	0	-0.64949638	0.16174008	333.65601723	-27.45730402	0.56998819	0	-0.38878774	0	-0.88226341	0	0	1.38385168	0
0.43000000	9.18068840	338.49766018	36.67664477	0.57254838	0	-0.64943493	0.16513394	333.67859452	-27.43099753	0.56994208	0	-0.38871483	0	-0.88824738	0	0	1.36971892	0
0.44000000	9.18881458	338.69128248	36.68060949	0.57246764	0	-0.64938278	0.16926472	333.70540423	-27.41683598	0.56985561	0	-0.38866115	0	-0.89391463	0	0	1.35819780	0.00000000
0.45000000	9.20340738	338.97345402	36.71053615	0.57234507	0	-0.64938064	0.18191731	333.70708100	-27.42407436	0.56984266	0	-0.38869155	0	-0.90189571	0	0	1.34194651	0
0.46000000	9.20428467	339.24847734	36.73900148	0.57219813	0	-0.64941286	0.19021851	333.67199515	-27.44394594	0.56988039	0	-0.38877775	0	-0.89114918	0	0	1.32775701	0
0.47000000	9.18413205	339.41410156	36.75931805	0.57209000	0	-0.64943747	0.19391754	333.59046133	-27.47753293	0.56985431	0	-0.38888214	0	-0.85939217	0	0	1.33195056	0
0.48000000	9.15953654	339.46236301	36.76823855	0.57204566	0	-0.64944675	0.19800318	333.48420023	-27.50918303	0.56975420	0	-0.38895675	0	-0.83274923	0	0	1.35082761	0
0.49000000	9.13953053	339.43800616	36.77180927	0.57197955	0	-0.64943801	0.19303439	333.38148931	-27.53173412	0.56959453	0	-0.38895405	0	-0.82370847	0	0	1.37684892	0
0.50000000	9.13524100	339.32231359	36.75450988	0.57192188	0	-0.64941084	0.17797528	333.27609287	-27.54410662	0.56937785	0	-0.38889852	0	-0.82217481	0	0	1.39268313	0
0.51000000	9.12923494	339.17121092	36.70836191	0.57196755	0	-0.64938952	0.15397242	333.23012947	-27.55690706	0.56920989	0	-0.38885373	0	-0.82144212	0	0	1.40051042	0.00000000
